# Blender v2.71 (sub 0) OBJ File: 'mushroom.blend'
# www.blender.org
mtllib mushroom.mtl
o mushroom_Cylinder
v 0.682287 0.191814 -0.939088
v 0.000000 4.889926 -0.000000
v 0.000000 1.889926 -1.160777
v 0.000000 4.889926 -1.012542
v 0.682287 1.889926 -0.939088
v 0.595157 4.889926 -0.819164
v 1.103964 1.889926 -0.358700
v 0.962985 4.889926 -0.312893
v 1.103964 1.889926 0.358700
v 0.962985 4.889926 0.312893
v 0.682287 1.889926 0.939088
v 0.595157 4.889926 0.819164
v -0.000000 1.889926 1.160777
v -0.000000 4.889926 1.012542
v -0.682288 1.889926 0.939088
v -0.595158 4.889926 0.819164
v -1.103964 1.889926 0.358700
v -0.962985 4.889926 0.312893
v -1.103964 1.889926 -0.358700
v -0.962985 4.889926 -0.312893
v -0.682287 1.889926 -0.939088
v -0.595157 4.889926 -0.819164
v 0.000000 4.608369 -1.500000
v 0.881678 4.608369 -1.213526
v 1.426585 4.608369 -0.463525
v 1.426585 4.608369 0.463526
v 0.881678 4.608369 1.213526
v -0.000000 4.608369 1.500000
v -0.881678 4.608369 1.213525
v -1.426585 4.608369 0.463526
v -1.426585 4.608369 -0.463526
v -0.881677 4.608369 -1.213526
v 1.479508 2.075616 -2.036368
v 2.393894 2.075616 -0.777823
v 2.393894 2.075616 0.777824
v 1.479508 2.075616 2.036368
v -0.000000 2.075616 2.517090
v -1.479508 2.075616 2.036368
v -2.393894 2.075616 0.777824
v -2.393894 2.075616 -0.777824
v -1.479507 2.075616 -2.036369
v -0.000000 2.075616 -2.517090
v 1.387830 3.031487 -1.910185
v 2.245556 3.031487 -0.729625
v 2.245556 3.031487 0.729626
v 1.387830 3.031487 1.910184
v -0.000000 3.031487 2.361118
v -1.387830 3.031487 1.910184
v -2.245556 3.031487 0.729626
v -2.245556 3.031487 -0.729626
v -1.387829 3.031487 -1.910185
v -0.000000 3.031487 -2.361118
v 0.000000 0.000000 -0.000000
v 0.000000 0.000000 -0.987212
v 0.580269 0.000000 -0.798671
v 0.938894 0.000000 -0.305065
v 0.938894 0.000000 0.305065
v 0.580268 0.000000 0.798671
v -0.000000 0.000000 0.987212
v -0.580269 0.000000 0.798671
v -0.938894 0.000000 0.305065
v -0.938894 0.000000 -0.305065
v -0.580268 0.000000 -0.798671
v 1.103964 0.191814 -0.358700
v 1.103964 0.191814 0.358700
v 0.682287 0.191814 0.939088
v -0.000000 0.191814 1.160777
v -0.682288 0.191814 0.939088
v -1.103964 0.191814 0.358700
v -1.103964 0.191814 -0.358700
v 0.000000 0.191814 -1.160777
v -0.682287 0.191814 -0.939088
vt 0.238942 0.615032
vt 0.239638 0.586567
vt 0.271598 0.596598
vt 0.746094 0.256783
vt 0.755014 0.218261
vt 0.775953 0.230861
vt 0.760830 0.196155
vt 0.207265 0.608634
vt 0.207455 0.581126
vt 0.730667 0.220375
vt 0.722379 0.199072
vt 0.175571 0.610076
vt 0.175181 0.582352
vt 0.712213 0.236396
vt 0.143899 0.618808
vt 0.143078 0.589778
vt 0.706700 0.260204
vt 0.692987 0.224033
vt 0.112113 0.631493
vt 0.111168 0.600567
vt 0.716235 0.282706
vt 0.698536 0.297171
vt 0.079922 0.643287
vt 0.079207 0.610597
vt 0.737174 0.295306
vt 0.731358 0.317411
vt 0.047221 0.649685
vt 0.047024 0.616039
vt 0.761520 0.293191
vt 0.769808 0.314494
vt 0.335209 0.648243
vt 0.335612 0.614812
vt 0.367885 0.616039
vt 0.779974 0.277171
vt 0.302674 0.639512
vt 0.303509 0.607387
vt 0.785487 0.253362
vt 0.808308 0.252063
vt 0.270657 0.626827
vt 0.793652 0.216396
vt 0.791594 0.109224
vt 0.619817 0.167911
vt 0.683879 0.261503
vt 0.591696 0.259108
vt 0.700593 0.404343
vt 0.796016 0.402906
vt 0.799201 0.289533
vt 0.872371 0.345655
vt 0.900492 0.254458
vt 0.869638 0.164149
vt 0.266950 0.924401
vt 0.236330 0.898826
vt 0.233483 0.885732
vt 0.206570 0.884952
vt 0.205841 0.879334
vt 0.177004 0.888079
vt 0.178521 0.880776
vt 0.147022 0.907012
vt 0.150509 0.889507
vt 0.115912 0.934520
vt 0.082955 0.960095
vt 0.087073 0.913987
vt 0.048086 0.973969
vt 0.049347 0.920385
vt 0.368947 0.973969
vt 0.333453 0.970842
vt 0.330935 0.918943
vt 0.299189 0.951909
vt 0.294631 0.910212
vt 0.262579 0.897526
vt 0.818558 0.033760
vt 0.696171 0.110660
vt 0.673629 0.033760
vt 0.556379 0.118947
vt 0.511594 0.256783
vt 0.622550 0.349417
vt 0.556379 0.394619
vt 0.818558 0.479806
vt 0.935808 0.394619
vt 0.935809 0.118948
vt 0.363181 0.438151
vt 0.042319 0.438151
vt 0.120552 0.902193
vt 0.368082 0.649685
vt 0.370209 0.920385
vt 0.673629 0.479806
vt 0.980594 0.256783
vn 0.234200 -0.652300 -0.720900
vn 0.000000 1.000000 0.000000
vn 0.160400 0.854700 -0.493700
vn 0.613200 -0.652300 -0.445500
vn 0.420000 0.854700 -0.305100
vn 0.758000 -0.652300 0.000000
vn 0.519100 0.854700 -0.000000
vn 0.613200 -0.652300 0.445500
vn 0.420000 0.854700 0.305100
vn 0.234200 -0.652300 0.720900
vn 0.160400 0.854700 0.493700
vn -0.234200 -0.652300 0.720900
vn -0.160400 0.854700 0.493700
vn -0.613200 -0.652300 0.445500
vn -0.420000 0.854700 0.305100
vn -0.758000 -0.652300 0.000000
vn -0.519100 0.854700 0.000000
vn -0.613200 -0.652300 -0.445500
vn -0.420000 0.854700 -0.305100
vn -0.234200 -0.652300 -0.720900
vn -0.160400 0.854700 -0.493700
vn 0.274200 0.460900 -0.844000
vn 0.718000 0.460900 -0.521600
vn 0.887400 0.460900 0.000000
vn 0.718000 0.460900 0.521600
vn 0.274200 0.460900 0.844000
vn -0.274200 0.460900 0.844000
vn -0.718000 0.460900 0.521600
vn -0.887400 0.460900 0.000000
vn -0.718000 0.460900 -0.521600
vn -0.274200 0.460900 -0.844000
vn 0.044000 -0.989800 -0.135500
vn 0.115300 -0.989800 -0.083800
vn 0.142500 -0.989800 0.000000
vn 0.115300 -0.989800 0.083800
vn 0.044000 -0.989800 0.135500
vn -0.044000 -0.989800 0.135500
vn -0.115300 -0.989800 0.083800
vn -0.142500 -0.989800 0.000000
vn -0.115300 -0.989800 -0.083800
vn -0.044000 -0.989800 -0.135500
vn 0.305400 0.153400 -0.939800
vn 0.799400 0.153400 -0.580800
vn 0.988200 0.153400 0.000000
vn 0.799400 0.153400 0.580800
vn 0.305400 0.153400 0.939800
vn -0.305400 0.153400 0.939800
vn -0.799400 0.153400 0.580800
vn -0.988200 0.153400 0.000000
vn -0.799400 0.153400 -0.580800
vn -0.305400 0.153400 -0.939800
vn 0.000000 -1.000000 0.000000
vn 0.309000 0.000000 -0.951100
vn 0.809000 0.000000 -0.587800
vn 1.000000 0.000000 0.000000
vn 0.809000 0.000000 0.587800
vn 0.309000 0.000000 0.951100
vn -0.309000 0.000000 0.951100
vn -0.809000 0.000000 0.587800
vn -1.000000 0.000000 0.000000
vn -0.809000 0.000000 -0.587800
vn -0.309000 0.000000 -0.951100
usemtl mushroom
s off
f 1/1/1 55/2/1 54/3/1
f 2/4/2 6/5/2 4/6/2
f 4/6/3 6/5/3 24/7/3
f 1/1/4 64/8/4 56/9/4
f 2/4/2 8/10/2 6/5/2
f 6/5/5 8/10/5 25/11/5
f 64/8/6 65/12/6 57/13/6
f 2/4/2 10/14/2 8/10/2
f 25/11/7 8/10/7 10/14/7
f 65/12/8 66/15/8 58/16/8
f 2/4/2 12/17/2 10/14/2
f 26/18/9 10/14/9 12/17/9
f 66/15/10 67/19/10 59/20/10
f 2/4/2 14/21/2 12/17/2
f 12/17/11 14/21/11 28/22/11
f 67/19/12 68/23/12 60/24/12
f 2/4/2 16/25/2 14/21/2
f 14/21/13 16/25/13 29/26/13
f 69/27/14 61/28/14 60/24/14
f 2/4/2 18/29/2 16/25/2
f 16/25/15 18/29/15 30/30/15
f 70/31/16 62/32/16 61/33/16
f 2/4/2 20/34/2 18/29/2
f 30/30/17 18/29/17 20/34/17
f 70/31/18 72/35/18 63/36/18
f 2/4/2 22/37/2 20/34/2
f 20/34/19 22/37/19 32/38/19
f 71/39/20 54/3/20 63/36/20
f 2/4/2 4/6/2 22/37/2
f 22/37/21 4/6/21 23/40/21
f 23/40/22 24/7/22 43/41/22
f 43/41/23 24/7/23 25/11/23
f 25/11/24 26/18/24 45/42/24
f 26/18/25 27/43/25 46/44/25
f 46/44/26 27/43/26 28/22/26
f 28/22/27 29/26/27 48/45/27
f 29/26/28 30/30/28 49/46/28
f 30/30/29 31/47/29 50/48/29
f 31/47/30 32/38/30 51/49/30
f 32/38/31 23/40/31 52/50/31
f 42/51/32 33/52/32 5/53/32
f 33/52/33 34/54/33 7/55/33
f 34/54/34 35/56/34 9/57/34
f 35/56/35 36/58/35 11/59/35
f 11/59/36 36/58/36 37/60/36
f 37/60/37 38/61/37 15/62/37
f 38/61/38 39/63/38 17/64/38
f 39/65/39 40/66/39 19/67/39
f 40/66/40 41/68/40 21/69/40
f 41/68/41 42/51/41 3/70/41
f 52/50/42 43/41/42 33/71/42
f 43/41/43 44/72/43 34/73/43
f 44/72/44 45/42/44 35/74/44
f 45/42/45 46/44/45 36/75/45
f 46/44/46 47/76/46 37/77/46
f 37/77/47 47/76/47 48/45/47
f 48/45/48 49/46/48 39/78/48
f 49/46/49 50/48/49 40/79/49
f 40/79/50 50/48/50 51/49/50
f 51/49/51 52/50/51 42/80/51
f 53/81/52 54/3/52 55/2/52
f 53/81/52 55/2/52 56/9/52
f 53/81/52 56/9/52 57/13/52
f 53/82/52 57/13/52 58/16/52
f 53/82/52 58/16/52 59/20/52
f 53/82/52 59/20/52 60/24/52
f 53/82/52 60/24/52 61/28/52
f 53/81/52 61/33/52 62/32/52
f 53/81/52 62/32/52 63/36/52
f 53/81/52 63/36/52 54/3/52
f 5/53/53 1/1/53 71/39/53
f 7/55/54 64/8/54 1/1/54
f 9/57/55 65/12/55 64/8/55
f 11/59/56 66/15/56 65/12/56
f 13/83/57 67/19/57 66/15/57
f 15/62/58 68/23/58 67/19/58
f 17/64/59 69/27/59 68/23/59
f 19/67/60 70/31/60 69/84/60
f 21/69/61 72/35/61 70/31/61
f 3/70/62 71/39/62 72/35/62
f 71/39/1 1/1/1 54/3/1
f 23/40/3 4/6/3 24/7/3
f 55/2/4 1/1/4 56/9/4
f 24/7/5 6/5/5 25/11/5
f 56/9/6 64/8/6 57/13/6
f 26/18/7 25/11/7 10/14/7
f 57/13/8 65/12/8 58/16/8
f 27/43/9 26/18/9 12/17/9
f 58/16/10 66/15/10 59/20/10
f 27/43/11 12/17/11 28/22/11
f 59/20/12 67/19/12 60/24/12
f 28/22/13 14/21/13 29/26/13
f 68/23/14 69/27/14 60/24/14
f 29/26/15 16/25/15 30/30/15
f 69/84/16 70/31/16 61/33/16
f 31/47/17 30/30/17 20/34/17
f 62/32/18 70/31/18 63/36/18
f 31/47/19 20/34/19 32/38/19
f 72/35/20 71/39/20 63/36/20
f 32/38/21 22/37/21 23/40/21
f 52/50/22 23/40/22 43/41/22
f 44/72/23 43/41/23 25/11/23
f 44/72/24 25/11/24 45/42/24
f 45/42/25 26/18/25 46/44/25
f 47/76/26 46/44/26 28/22/26
f 47/76/27 28/22/27 48/45/27
f 48/45/28 29/26/28 49/46/28
f 49/46/29 30/30/29 50/48/29
f 50/48/30 31/47/30 51/49/30
f 51/49/31 32/38/31 52/50/31
f 3/70/32 42/51/32 5/53/32
f 5/53/33 33/52/33 7/55/33
f 7/55/34 34/54/34 9/57/34
f 9/57/35 35/56/35 11/59/35
f 13/83/36 11/59/36 37/60/36
f 13/83/37 37/60/37 15/62/37
f 15/62/38 38/61/38 17/64/38
f 17/85/39 39/65/39 19/67/39
f 19/67/40 40/66/40 21/69/40
f 21/69/41 41/68/41 3/70/41
f 42/80/42 52/50/42 33/71/42
f 33/71/43 43/41/43 34/73/43
f 34/73/44 44/72/44 35/74/44
f 35/74/45 45/42/45 36/75/45
f 36/75/46 46/44/46 37/77/46
f 38/86/47 37/77/47 48/45/47
f 38/86/48 48/45/48 39/78/48
f 39/78/49 49/46/49 40/79/49
f 41/87/50 40/79/50 51/49/50
f 41/87/51 51/49/51 42/80/51
f 3/70/53 5/53/53 71/39/53
f 5/53/54 7/55/54 1/1/54
f 7/55/55 9/57/55 64/8/55
f 9/57/56 11/59/56 65/12/56
f 11/59/57 13/83/57 66/15/57
f 13/83/58 15/62/58 67/19/58
f 15/62/59 17/64/59 68/23/59
f 17/85/60 19/67/60 69/84/60
f 19/67/61 21/69/61 70/31/61
f 21/69/62 3/70/62 72/35/62
